<svg id="logo_baltimoreravens" xmlns="http://www.w3.org/2000/svg" width="60" height="60" viewBox="0 0 60 60">
  <path id="Path_60" data-name="Path 60" d="M0,0H60V60H0Z" fill="none"/>
  <path id="Path_61" data-name="Path 61" d="M58.961,33.218c-.235-1.43-1.178-3.53-4.342-5.42-.214-.128-.438-.252-.669-.374l1.2-.4-3.506-1.366c-.3-.117-.615-.222-.933-.325l.476-.483L48.5,24.471a18.053,18.053,0,0,0-2.78-.19c-.007-.113-.016-.217-.027-.311l-.449-3.363L44.1,22.166a6.985,6.985,0,0,0-.76-1.039l-2.9-3.276s.116.963.208,1.733a17.461,17.461,0,0,0-3.118-1.73,26.949,26.949,0,0,0-16.187-1.141A30.071,30.071,0,0,0,4.215,27.736L.96,31.881l4.9-1.95a37.229,37.229,0,0,1,6.871-1.918c1.137-.16,2.008-.173,1.3,1.383a24.224,24.224,0,0,1-1.836,3.039L9.742,36l4.092-1.419a18.3,18.3,0,0,1,4.628-1.052c.319.006.378.216.277.445a2.08,2.08,0,0,1-.266.46l-2.566,3.658,4.209-1.506c3.054-1.095,7.07-1.815,8.506-1.267.117.044.5.246.12.8l-1.653,2.627,2.787-.423a6.394,6.394,0,0,0,1.545,3.858l1.773,1.816.623-2.46a5.388,5.388,0,0,1,2.04-3.26L36,39.284l1.644-.592a10.313,10.313,0,0,0,3.263-1.782,36.55,36.55,0,0,1,6.031.008,24.669,24.669,0,0,0,7.805-.325,3.02,3.02,0,0,1,1.9.2l1.252.68.676-1.267a4.744,4.744,0,0,0,.462-2.116,5.332,5.332,0,0,0-.071-.872" fill="#fffffe"/>
  <path id="Path_62" data-name="Path 62" d="M58.374,33.461c-.208-1.267-1.067-3.139-3.976-4.878a17.188,17.188,0,0,0-2.479-1.2l1.03-.346-1.415-.552a17,17,0,0,0-2.2-.681l.3-.309-1.085-.153a15.319,15.319,0,0,0-3.5-.143c.006-.146.011-.3.011-.457a4.887,4.887,0,0,0-.031-.607l-.182-1.358-.755,1.03a6.383,6.383,0,0,0-1.229-2.094L41.7,20.393l.133,1.105a15.57,15.57,0,0,0-4.51-2.862,26.259,26.259,0,0,0-15.768-1.1A29.42,29.42,0,0,0,4.792,28.324L3.4,30.1,5.5,29.262a36.546,36.546,0,0,1,7.1-1.98c1.242-.165,2.1-.018,2.413.415.293.405.2,1.208-.256,2.148a31.123,31.123,0,0,1-1.908,3.162L11.8,34.529l1.75-.606c2.305-.8,5.212-1.393,5.886-.953a.569.569,0,0,1,.272.389,2.835,2.835,0,0,1-.552,1.662l-1.1,1.563,1.8-.643c2.876-1.03,8.033-2.212,9.627-.991.737.565.048,1.681.018,1.728L28.792,37.8l1.313-.2.643-.1c0,.1-.011.207-.011.305a5.833,5.833,0,0,0,1.348,3.954l.759.777.266-1.053c.747-2.956,2.513-3.98,3.5-4.327.027.2.164,1.154.164,1.154l.7-.253a8.916,8.916,0,0,0,3.218-1.815,38.2,38.2,0,0,1,6.486-.014,23.929,23.929,0,0,0,7.576-.309,3.832,3.832,0,0,1,2.48.272l.541.295.29-.543a3.993,3.993,0,0,0,.368-1.742,4.579,4.579,0,0,0-.061-.744" fill="#9e7c0c"/>
  <path id="Path_63" data-name="Path 63" d="M54.036,29.2A14.925,14.925,0,0,0,49.6,27.268a4.546,4.546,0,0,1,1.323-.2,15.165,15.165,0,0,0-3.067-.784l.37-.331a14.281,14.281,0,0,0-3.822-.207,4.52,4.52,0,0,0,.074-1.692,2.48,2.48,0,0,1-.752,1.056,4.365,4.365,0,0,0-1.259-2.9l.17,1.492a12.332,12.332,0,0,0-5.259-4.133c-7.911-3.694-21.852-2.294-29.5,7.579a18.379,18.379,0,0,1,7.1-1.584c2.16-.051,2.685,1.158,1.9,3.194A17.583,17.583,0,0,1,14.69,32.6s9.33-3.3,6.384,1.285c0,0,7.043-2.107,9.156.365C31.212,35.4,30.068,37,30.068,37l2-.432a5.278,5.278,0,0,0,.486,4.154,5.839,5.839,0,0,1,4.718-4.363l.22.9a6.615,6.615,0,0,0,2.966-1.812c3.612-.567,6.065-.082,8.849.069a29.79,29.79,0,0,0,6.822-.48,2.313,2.313,0,0,1,1.075.433s1.686-2.842-3.166-6.273"/>
  <path id="Path_64" data-name="Path 64" d="M50.707,34.588c-2.808.014-5.31-.7-8.7-.282l-1.136-.911a5.7,5.7,0,0,1-.728,1.322,2.165,2.165,0,0,0-.167-1.854c-1.4-.742-3.684-2.163-1.742-2.626a23.324,23.324,0,0,0-9.515.773s4.27-2.849,12.481-1.51c-2.218-1.323-7.08-1.268-7.08-1.268,4.43-1.106,9.776.643,11.76,1.292l-1.85-1.336,2.337.2-1.256-1.011s4.971.352,8.206,2.507c3.781,2.213,3.318,4.536,3.318,4.536C55.746,32.565,49.183,31.3,41.6,30.4c-2.025-.238-2.881-.106-2.8.366.081.444,1.25,1.322,2.421,1.783-.837-.8-.11-1.008-.11-1.008,1.331-.109,9.924.7,14.312,2.574a21.326,21.326,0,0,1-4.72.47ZM25.584,30.06l-.13.085c-.047.034-.1.066-.142.1l-.069.047c-.206.011-.409.018-.606.018l-1.819.1c-1.08.055-2.9.274-3.51.351l-.2.025c1.413-4.941,2.689-6.674,3.544-7.521a4.861,4.861,0,0,1,2.126-1.283,68.428,68.428,0,0,0-9.542,1.225c3.042-2.358,10.1-4.006,14.162-3.592s3.789,2.062,3.371,3c-.339.759-2,1.789-3.561,2.121,1.617.211,2.533,1.457,1.954,2.7a3.011,3.011,0,0,1-.169.309,17.444,17.444,0,0,0-4.514,1.768l-.131.076-.176.1-.134.079-.162.1c-.044.028-.235.149-.285.182Z" fill="#fffffe"/>
  <path id="Path_65" data-name="Path 65" d="M35.179,19.889c8.786,2.619,7.455,7.654,7.455,7.654s-.709.045-1.546-1.518a3.023,3.023,0,0,0-1.957-1.664,4.638,4.638,0,0,1,2.073.447s-1.7-2.549-6.556-2.352c0,0,2.449.3,3.487,1.669a11.358,11.358,0,0,0-6.266,1.015,7.237,7.237,0,0,1,4.676.929s-3.044-.228-4.714,1.5a15.982,15.982,0,0,1,4.787-.164,23.418,23.418,0,0,1,2.736.583,15.058,15.058,0,0,0-5.236.238s4.861-.055,7.08,1.268c-8.211-1.339-12.481,1.51-12.481,1.51a23.324,23.324,0,0,1,9.515-.773c-1.942.463.344,1.884,1.742,2.626a2.166,2.166,0,0,1,.167,1.854A3.863,3.863,0,0,1,38.2,36.23a2.94,2.94,0,0,0-.135-2.63,4.676,4.676,0,0,1-2.742,2.511c-2.443,1.022-2.822,2.511-2.822,2.511a4.141,4.141,0,0,1,1.2-2.794,7.429,7.429,0,0,0,.912-1.182l-2.731.748c1.832-5.32-8.742-3.18-8.742-3.18a8.945,8.945,0,0,1,2.172-1.97c.047-.032.1-.064.142-.1l.13-.085c.05-.033.1-.066.152-.1l.134-.084.162-.1.134-.079.176-.1.131-.076a17.45,17.45,0,0,1,4.514-1.768,3.034,3.034,0,0,0,.169-.309c.579-1.245-.337-2.491-1.954-2.7,1.562-.332,3.223-1.362,3.561-2.121.418-.94.695-2.587-3.371-3s-11.12,1.233-14.162,3.592a68.428,68.428,0,0,1,9.542-1.225,4.861,4.861,0,0,0-2.126,1.283c-.854.847-2.13,2.579-3.544,7.521l.2-.025-1.81.283s2.767-4.42.941-6.3c-1.57-1.617-6.8.029-6.8.029,5.2-4.974,14.568-7.563,23.546-4.887Zm-9.214,8.862a3.147,3.147,0,0,1-.765.094H24.161a25.094,25.094,0,0,1,1.088-2.718h.407c.969,0,1.506.544.9,1.841a2.258,2.258,0,0,1-.594.783Zm1.8-4.486a3.412,3.412,0,0,1-.966.137h-.729a13.468,13.468,0,0,1,1.062-2.049c.949.008,1.335.482.833,1.559a2.323,2.323,0,0,1-.2.353Z" fill="#241773"/>
  <path id="Path_66" data-name="Path 66" d="M27.968,23.912a2.323,2.323,0,0,1-.2.353,2.116,2.116,0,0,0,1.254-.878c.487-.849.114-1.459-.672-1.542l-.816,0a2.53,2.53,0,0,0-.4.506c.949.008,1.335.482.833,1.559m-1.41,4.056a2.258,2.258,0,0,1-.594.783,2.372,2.372,0,0,0,1.648-1.308c.6-1.3.066-1.842-.9-1.842h-1.2c-.09.176-.177.352-.259.526h.407c.969,0,1.506.544.9,1.841"/>
  <path id="Path_67" data-name="Path 67" d="M32.391,21.32c-.38-.623-1.308-.992-2.956-1.076a15.707,15.707,0,0,0-3.779.056A27.518,27.518,0,0,0,17.3,22.51a47.624,47.624,0,0,1,8.859-1.087c.951-.034,2,0,2,0a1.817,1.817,0,0,1,1.545.594,1.2,1.2,0,0,1-.151,1.495,3.008,3.008,0,0,1-1.441,1.034l1.014-.216a5.145,5.145,0,0,0,3.207-1.833,1.188,1.188,0,0,0,.058-1.173" fill="#9e7c0c"/>
  <path id="Path_68" data-name="Path 68" d="M25.057,25.18h1.67a1.539,1.539,0,0,1,1.439.65,2,2,0,0,1-.119,1.878,3.049,3.049,0,0,1-2.821,1.652l-1.895.072a25.981,25.981,0,0,1,1.725-4.252Zm.868,4.663a17.433,17.433,0,0,1,4.435-1.929,2.528,2.528,0,0,0,.277-.46,1.674,1.674,0,0,0,.07-1.2c-.186-.553-.556-.922-1.723-1.195a15.7,15.7,0,0,0-3.779-.2,17.829,17.829,0,0,1,1.288-2.619,5.164,5.164,0,0,0-3.289,1.38c-1.119.988-2.327,3.554-3.288,6.61,1.653-.174,3.152-.252,3.152-.252l1.572-.068a11.608,11.608,0,0,0,1.287-.072Z" fill="#9e7c0c"/>
  <path id="Path_69" data-name="Path 69" d="M39.927,25.665a1.115,1.115,0,0,1-.775,1.478,1.373,1.373,0,0,1-1.687-.679,1.115,1.115,0,0,1,.775-1.478A1.373,1.373,0,0,1,39.927,25.665Zm-.062.363a.728.728,0,0,0-.933-.4.691.691,0,0,0-.439.89.73.73,0,0,0,.933.4.692.692,0,0,0,.438-.892Z" fill="#c60c30"/>
  <path id="Path_70" data-name="Path 70" d="M38.178,26.541a.856.856,0,0,1,.61-1.121,1.16,1.16,0,0,1,.606-.031,1.141,1.141,0,0,0-.951-.109.854.854,0,0,0-.61,1.123.947.947,0,0,0,.691.534.877.877,0,0,1-.345-.4" fill="#fffffe"/>
</svg>
